<?xml version="1.0" standalone="no"?><svg xmlns="http://www.w3.org/2000/svg" viewBox="0 0 1440 320"><path fill="#0099ff" fill-opacity="1" d="M0,288L40,256C80,224,160,160,240,154.7C320,149,400,203,480,192C560,181,640,107,720,74.7C800,43,880,53,960,85.3C1040,117,1120,171,1200,192C1280,213,1360,203,1400,197.3L1440,192L1440,320L1400,320C1360,320,1280,320,1200,320C1120,320,1040,320,960,320C880,320,800,320,720,320C640,320,560,320,480,320C400,320,320,320,240,320C160,320,80,320,40,320L0,320Z"></path></svg>